<mxfile host="app.diagrams.net" agent="Mozilla/5.0 (Windows NT 10.0; Win64; x64) AppleWebKit/537.36 (KHTML, like Gecko) Chrome/130.0.0.0 Safari/537.36" version="24.8.6">
  <diagram name="Trang-1" id="2futV-o7GAZBl7AFuSj0">
    <mxGraphModel dx="1050" dy="557" grid="1" gridSize="10" guides="1" tooltips="1" connect="1" arrows="1" fold="1" page="1" pageScale="1" pageWidth="827" pageHeight="1169" math="0" shadow="0">
      <root>
        <mxCell id="0" />
        <mxCell id="1" parent="0" />
        <mxCell id="HI6R9v4g1SGkNUWQCdg3-1" value="&lt;div&gt;&lt;br&gt;&lt;/div&gt;&lt;div&gt;&lt;br&gt;&lt;/div&gt;&lt;div&gt;&lt;br&gt;&lt;/div&gt;&lt;div&gt;&lt;br&gt;&lt;/div&gt;&lt;div&gt;&lt;span style=&quot;background-color: initial;&quot;&gt;&lt;br&gt;&lt;/span&gt;&lt;/div&gt;&lt;div&gt;&lt;span style=&quot;background-color: initial;&quot;&gt;admin&lt;/span&gt;&lt;/div&gt;&lt;div&gt;&lt;br&gt;&lt;/div&gt;" style="shape=umlLifeline;perimeter=lifelinePerimeter;whiteSpace=wrap;html=1;container=1;dropTarget=0;collapsible=0;recursiveResize=0;outlineConnect=0;portConstraint=eastwest;newEdgeStyle={&quot;curved&quot;:0,&quot;rounded&quot;:0};participant=umlActor;size=40;" vertex="1" parent="1">
          <mxGeometry x="120" y="80" width="20" height="630" as="geometry" />
        </mxCell>
        <mxCell id="HI6R9v4g1SGkNUWQCdg3-2" value=":Client" style="shape=umlLifeline;perimeter=lifelinePerimeter;whiteSpace=wrap;html=1;container=1;dropTarget=0;collapsible=0;recursiveResize=0;outlineConnect=0;portConstraint=eastwest;newEdgeStyle={&quot;curved&quot;:0,&quot;rounded&quot;:0};" vertex="1" parent="1">
          <mxGeometry x="219" y="80" width="100" height="630" as="geometry" />
        </mxCell>
        <mxCell id="HI6R9v4g1SGkNUWQCdg3-3" value="" style="html=1;points=[[0,0,0,0,5],[0,1,0,0,-5],[1,0,0,0,5],[1,1,0,0,-5]];perimeter=orthogonalPerimeter;outlineConnect=0;targetShapes=umlLifeline;portConstraint=eastwest;newEdgeStyle={&quot;curved&quot;:0,&quot;rounded&quot;:0};" vertex="1" parent="HI6R9v4g1SGkNUWQCdg3-2">
          <mxGeometry x="45" y="80" width="10" height="550" as="geometry" />
        </mxCell>
        <mxCell id="HI6R9v4g1SGkNUWQCdg3-4" value=":Api" style="shape=umlLifeline;perimeter=lifelinePerimeter;whiteSpace=wrap;html=1;container=1;dropTarget=0;collapsible=0;recursiveResize=0;outlineConnect=0;portConstraint=eastwest;newEdgeStyle={&quot;curved&quot;:0,&quot;rounded&quot;:0};" vertex="1" parent="1">
          <mxGeometry x="389" y="80" width="100" height="580" as="geometry" />
        </mxCell>
        <mxCell id="HI6R9v4g1SGkNUWQCdg3-5" value=":Server" style="shape=umlLifeline;perimeter=lifelinePerimeter;whiteSpace=wrap;html=1;container=1;dropTarget=0;collapsible=0;recursiveResize=0;outlineConnect=0;portConstraint=eastwest;newEdgeStyle={&quot;curved&quot;:0,&quot;rounded&quot;:0};" vertex="1" parent="1">
          <mxGeometry x="554" y="80" width="100" height="630" as="geometry" />
        </mxCell>
        <mxCell id="HI6R9v4g1SGkNUWQCdg3-6" value="Nhấn nút xóa đơn" style="html=1;verticalAlign=bottom;endArrow=block;curved=0;rounded=0;" edge="1" parent="1">
          <mxGeometry x="0.1613" y="4" width="80" relative="1" as="geometry">
            <mxPoint x="129" y="174" as="sourcePoint" />
            <mxPoint x="260" y="174" as="targetPoint" />
            <mxPoint as="offset" />
          </mxGeometry>
        </mxCell>
        <mxCell id="HI6R9v4g1SGkNUWQCdg3-7" value="gọi api xóa phòng&amp;nbsp;" style="html=1;verticalAlign=bottom;endArrow=block;curved=0;rounded=0;" edge="1" parent="1">
          <mxGeometry width="80" relative="1" as="geometry">
            <mxPoint x="272.5" y="200" as="sourcePoint" />
            <mxPoint x="434" y="200" as="targetPoint" />
          </mxGeometry>
        </mxCell>
        <mxCell id="HI6R9v4g1SGkNUWQCdg3-8" value="gửi yêu cầu" style="html=1;verticalAlign=bottom;endArrow=block;curved=0;rounded=0;" edge="1" parent="1">
          <mxGeometry width="80" relative="1" as="geometry">
            <mxPoint x="444" y="230" as="sourcePoint" />
            <mxPoint x="600" y="230" as="targetPoint" />
          </mxGeometry>
        </mxCell>
        <mxCell id="HI6R9v4g1SGkNUWQCdg3-9" value="trả về kết quả&amp;nbsp;" style="html=1;verticalAlign=bottom;endArrow=open;dashed=1;endSize=8;curved=0;rounded=0;" edge="1" parent="1" source="HI6R9v4g1SGkNUWQCdg3-22">
          <mxGeometry relative="1" as="geometry">
            <mxPoint x="605.5" y="290" as="sourcePoint" />
            <mxPoint x="444" y="290" as="targetPoint" />
          </mxGeometry>
        </mxCell>
        <mxCell id="HI6R9v4g1SGkNUWQCdg3-10" value="alt kết quả xóa phòng" style="shape=umlFrame;whiteSpace=wrap;html=1;pointerEvents=0;width=130;height=20;" vertex="1" parent="1">
          <mxGeometry x="150" y="470" width="320" height="200" as="geometry" />
        </mxCell>
        <mxCell id="HI6R9v4g1SGkNUWQCdg3-11" value="Hiển thị ra màn hình chính" style="html=1;verticalAlign=bottom;endArrow=open;dashed=1;endSize=8;curved=0;rounded=0;" edge="1" parent="1">
          <mxGeometry relative="1" as="geometry">
            <mxPoint x="443" y="520" as="sourcePoint" />
            <mxPoint x="272" y="520" as="targetPoint" />
            <Array as="points" />
          </mxGeometry>
        </mxCell>
        <mxCell id="HI6R9v4g1SGkNUWQCdg3-12" value="Hiển thị ra màn hình thất bại" style="html=1;verticalAlign=bottom;endArrow=open;dashed=1;endSize=8;curved=0;rounded=0;" edge="1" parent="1">
          <mxGeometry relative="1" as="geometry">
            <mxPoint x="441" y="600" as="sourcePoint" />
            <mxPoint x="270" y="600" as="targetPoint" />
            <Array as="points" />
          </mxGeometry>
        </mxCell>
        <mxCell id="HI6R9v4g1SGkNUWQCdg3-13" value="Xóa đơn thành&amp;nbsp;&lt;div&gt;công&lt;/div&gt;" style="text;html=1;align=center;verticalAlign=middle;resizable=0;points=[];autosize=1;strokeColor=none;fillColor=none;" vertex="1" parent="1">
          <mxGeometry x="155" y="503" width="110" height="40" as="geometry" />
        </mxCell>
        <mxCell id="HI6R9v4g1SGkNUWQCdg3-14" value="&amp;nbsp; &amp;nbsp; &amp;nbsp; &amp;nbsp; &amp;nbsp; &amp;nbsp; &amp;nbsp; &amp;nbsp; &amp;nbsp; &amp;nbsp; &amp;nbsp; &amp;nbsp; &amp;nbsp; Xóa đơn thất bại" style="text;html=1;align=center;verticalAlign=middle;resizable=0;points=[];autosize=1;strokeColor=none;fillColor=none;" vertex="1" parent="1">
          <mxGeometry x="65" y="578" width="200" height="30" as="geometry" />
        </mxCell>
        <mxCell id="HI6R9v4g1SGkNUWQCdg3-15" value=":Database" style="shape=umlLifeline;perimeter=lifelinePerimeter;whiteSpace=wrap;html=1;container=1;dropTarget=0;collapsible=0;recursiveResize=0;outlineConnect=0;portConstraint=eastwest;newEdgeStyle={&quot;curved&quot;:0,&quot;rounded&quot;:0};" vertex="1" parent="1">
          <mxGeometry x="700" y="80" width="96" height="630" as="geometry" />
        </mxCell>
        <mxCell id="HI6R9v4g1SGkNUWQCdg3-16" value="cập nhật&lt;div&gt;dữ liệu&lt;/div&gt;" style="html=1;align=left;spacingLeft=2;endArrow=block;rounded=0;edgeStyle=orthogonalEdgeStyle;curved=0;rounded=0;" edge="1" parent="HI6R9v4g1SGkNUWQCdg3-15">
          <mxGeometry relative="1" as="geometry">
            <mxPoint x="53.00000000000003" y="160" as="sourcePoint" />
            <Array as="points">
              <mxPoint x="67" y="160" />
              <mxPoint x="67" y="190" />
            </Array>
            <mxPoint x="53" y="190" as="targetPoint" />
          </mxGeometry>
        </mxCell>
        <mxCell id="HI6R9v4g1SGkNUWQCdg3-17" value="gửi yêu cầu&amp;nbsp;" style="html=1;verticalAlign=bottom;endArrow=block;curved=0;rounded=0;" edge="1" parent="1">
          <mxGeometry width="80" relative="1" as="geometry">
            <mxPoint x="610" y="240.48" as="sourcePoint" />
            <mxPoint x="741" y="240" as="targetPoint" />
          </mxGeometry>
        </mxCell>
        <mxCell id="HI6R9v4g1SGkNUWQCdg3-18" value="" style="html=1;points=[[0,0,0,0,5],[0,1,0,0,-5],[1,0,0,0,5],[1,1,0,0,-5]];perimeter=orthogonalPerimeter;outlineConnect=0;targetShapes=umlLifeline;portConstraint=eastwest;newEdgeStyle={&quot;curved&quot;:0,&quot;rounded&quot;:0};" vertex="1" parent="1">
          <mxGeometry x="743" y="232" width="10" height="46" as="geometry" />
        </mxCell>
        <mxCell id="HI6R9v4g1SGkNUWQCdg3-19" value="trả về kết quả" style="html=1;verticalAlign=bottom;endArrow=open;dashed=1;endSize=8;curved=0;rounded=0;" edge="1" parent="1">
          <mxGeometry relative="1" as="geometry">
            <mxPoint x="740" y="270" as="sourcePoint" />
            <mxPoint x="610" y="270" as="targetPoint" />
          </mxGeometry>
        </mxCell>
        <mxCell id="HI6R9v4g1SGkNUWQCdg3-20" value="Biểu đồ tuàn tự xóa đơn đặt phòng&lt;div&gt;&lt;br&gt;&lt;/div&gt;" style="shape=umlFrame;whiteSpace=wrap;html=1;pointerEvents=0;width=210;height=30;" vertex="1" parent="1">
          <mxGeometry x="57" y="14" width="770" height="712" as="geometry" />
        </mxCell>
        <mxCell id="HI6R9v4g1SGkNUWQCdg3-21" value="" style="html=1;points=[[0,0,0,0,5],[0,1,0,0,-5],[1,0,0,0,5],[1,1,0,0,-5]];perimeter=orthogonalPerimeter;outlineConnect=0;targetShapes=umlLifeline;portConstraint=eastwest;newEdgeStyle={&quot;curved&quot;:0,&quot;rounded&quot;:0};" vertex="1" parent="1">
          <mxGeometry x="434" y="180" width="10" height="530" as="geometry" />
        </mxCell>
        <mxCell id="HI6R9v4g1SGkNUWQCdg3-22" value="" style="html=1;points=[[0,0,0,0,5],[0,1,0,0,-5],[1,0,0,0,5],[1,1,0,0,-5]];perimeter=orthogonalPerimeter;outlineConnect=0;targetShapes=umlLifeline;portConstraint=eastwest;newEdgeStyle={&quot;curved&quot;:0,&quot;rounded&quot;:0};" vertex="1" parent="1">
          <mxGeometry x="599" y="210" width="10" height="90" as="geometry" />
        </mxCell>
      </root>
    </mxGraphModel>
  </diagram>
</mxfile>
